ply
format ascii 1.0
comment Created by Blender 2.79 (sub 0) - www.blender.org, source file: ''
element vertex 159
property float x
property float y
property float z
property float nx
property float ny
property float nz
element face 61
property list uchar uint vertex_indices
end_header
-7.000000 -4.000000 0.000000 0.000000 0.000000 -1.000000
-7.000000 -8.000000 0.000000 0.000000 0.000000 -1.000000
-11.000000 -8.000000 0.000000 0.000000 0.000000 -1.000000
-10.999999 -3.999999 0.000000 0.000000 0.000000 -1.000000
-9.000000 -4.000000 1.000000 0.000000 1.000000 0.000000
-10.500000 -4.000000 1.000000 0.000000 1.000000 0.000000
-10.500000 -4.000000 1.300070 0.000000 1.000000 0.000000
-9.000000 -4.000000 1.300070 0.000000 1.000000 0.000000
-7.000000 -8.000000 0.000000 1.000000 0.000000 -0.000001
-7.000000 -4.000000 0.000000 1.000000 0.000000 -0.000001
-6.999999 -4.000001 1.000000 1.000000 0.000000 -0.000001
-6.999999 -4.500001 1.000000 0.000000 0.000000 0.000000
-7.000000 -6.000001 1.000000 0.000000 0.000000 0.000000
-7.000001 -7.500001 1.000000 0.000000 0.000000 0.000000
-6.999999 -4.500001 1.000000 1.000000 0.000000 -0.000001
-7.000001 -7.500001 1.000000 1.000000 -0.000001 0.000001
-7.000001 -8.000001 1.000000 1.000000 -0.000001 0.000001
-7.000000 -8.000000 0.000000 1.000000 -0.000001 0.000001
-6.999999 -4.500001 1.000000 1.000000 -0.000001 0.000001
-11.000000 -8.000000 0.000000 -0.000000 -1.000000 -0.000001
-7.000000 -8.000000 0.000000 -0.000000 -1.000000 -0.000001
-7.000001 -8.000001 1.000000 -0.000000 -1.000000 -0.000001
-7.500001 -8.000001 1.000000 0.000000 0.000000 1.000000
-9.000001 -8.000000 1.000000 0.000000 0.000000 1.000000
-10.500001 -8.000000 1.000000 0.000000 0.000000 1.000000
-7.500001 -8.000001 1.000000 0.000000 -1.000000 -0.000001
-10.500001 -8.000000 1.000000 -0.000001 -1.000000 0.000000
-11.000001 -7.999999 1.000000 -0.000001 -1.000000 0.000000
-11.000000 -8.000000 0.000000 -0.000001 -1.000000 0.000000
-7.500001 -8.000001 1.000000 -0.000000 -1.000000 0.000000
-10.500001 -8.000000 1.000000 -0.000000 -1.000000 0.000000
-11.000000 -8.000000 0.000000 -0.000000 -1.000000 0.000000
-10.999999 -3.999999 0.000000 -1.000000 0.000000 -0.000001
-11.000000 -8.000000 0.000000 -1.000000 0.000000 -0.000001
-11.000001 -7.999999 1.000000 -1.000000 0.000000 -0.000001
-11.000000 -7.500000 1.000000 0.000000 0.000000 0.000000
-11.000000 -6.000000 1.000000 0.000000 0.000000 0.000000
-11.000000 -4.500000 1.000000 0.000000 0.000000 0.000000
-10.999999 -3.999999 0.000000 -1.000000 0.000002 0.000006
-11.000001 -7.999999 1.000000 -1.000000 0.000002 0.000006
-11.000000 -7.500000 1.000000 -1.000000 0.000002 0.000006
-11.000000 -4.500000 1.000000 -1.000000 -0.000000 -0.000001
-11.000000 -4.000000 1.000000 -1.000000 -0.000000 -0.000001
-11.000000 -7.500000 1.000000 -1.000000 -0.000000 -0.000001
-7.499999 -4.000001 1.000000 0.000000 1.000000 0.000001
-6.999999 -4.000001 1.000000 0.000000 1.000000 0.000001
-7.000000 -4.000000 0.000000 0.000000 1.000000 0.000001
-10.999999 -3.999999 0.000000 0.000000 1.000000 0.000001
-11.000000 -4.000000 1.000000 0.000000 1.000000 0.000001
-10.500000 -4.000000 1.000000 0.000000 0.000000 1.000000
-9.000000 -4.000000 1.000000 0.000000 0.000000 1.000000
-7.499999 -4.000001 1.000000 0.000000 0.000000 1.000000
-7.000000 -4.000000 0.000000 0.000000 1.000000 0.000000
-11.000000 -4.000000 1.000000 0.000000 1.000000 0.000000
-10.500000 -4.000000 1.000000 0.000000 1.000000 0.000001
-9.000000 -4.000000 1.300070 0.000000 -0.000000 1.000000
-10.500000 -4.000000 1.300070 0.000000 -0.000000 1.000000
-10.500000 -4.500000 1.300070 0.000000 -0.000000 1.000000
-9.000000 -4.500000 1.300070 0.000000 -0.000000 1.000000
-7.500000 -6.000001 1.000000 -1.000000 0.000001 0.000000
-7.500001 -7.500001 1.000000 -1.000000 0.000001 0.000000
-7.500001 -7.500001 1.300070 -1.000000 0.000001 0.000000
-7.500000 -6.000001 1.300070 -1.000000 0.000001 0.000000
-11.000000 -6.000000 1.000000 -1.000000 0.000000 -0.000000
-11.000000 -7.500000 1.000000 -1.000000 0.000000 -0.000000
-11.000000 -7.500000 1.300070 -1.000000 0.000000 -0.000000
-11.000000 -6.000000 1.300070 -1.000000 0.000000 -0.000000
-7.000001 -8.000001 1.000000 1.000000 -0.000001 0.000000
-7.000001 -7.500001 1.000000 1.000000 -0.000001 0.000000
-7.000001 -7.500001 1.300070 1.000000 -0.000001 0.000000
-7.000001 -8.000001 1.300070 1.000000 -0.000001 0.000000
-10.500000 -4.500000 1.000000 0.000000 0.000000 1.000000
-10.500000 -6.000000 1.000000 0.000000 0.000000 1.000000
-9.000000 -6.000000 1.000000 0.000000 0.000000 1.000000
-9.000000 -4.500000 1.000000 0.000000 0.000000 1.000000
-7.500000 -4.500001 1.300070 0.000000 0.000000 1.000000
-7.500000 -6.000001 1.300070 0.000000 0.000000 1.000000
-7.000000 -6.000001 1.300070 0.000000 0.000000 1.000000
-6.999999 -4.500001 1.300070 0.000000 0.000000 1.000000
-7.500000 -4.500001 1.000000 -1.000000 0.000000 0.000000
-7.500000 -6.000001 1.000000 -1.000000 0.000000 0.000000
-7.500000 -6.000001 1.300070 -1.000000 0.000000 0.000000
-7.500000 -4.500001 1.300070 -1.000000 0.000000 0.000000
-6.999999 -4.500001 1.000000 1.000000 0.000000 0.000000
-6.999999 -4.000001 1.000000 1.000000 0.000000 0.000000
-6.999999 -4.000001 1.300070 1.000000 0.000000 0.000000
-6.999999 -4.500001 1.300070 1.000000 0.000000 0.000000
-7.000001 -8.000001 1.000000 0.000000 -1.000000 -0.000000
-7.000001 -8.000001 1.300070 0.000000 -1.000000 -0.000000
-7.500001 -8.000001 1.300070 0.000000 -1.000000 -0.000000
-6.999999 -4.000001 1.000000 0.000000 1.000000 0.000000
-7.499999 -4.000001 1.000000 0.000000 1.000000 0.000000
-7.499999 -4.000001 1.300070 0.000000 1.000000 0.000000
-6.999999 -4.000001 1.300070 0.000000 1.000000 0.000000
-10.500000 -4.500000 1.000000 -0.000000 -1.000000 0.000000
-9.000000 -4.500000 1.000000 -0.000000 -1.000000 0.000000
-9.000000 -4.500000 1.300070 -0.000000 -1.000000 0.000000
-10.500000 -4.500000 1.300070 -0.000000 -1.000000 0.000000
-9.000001 -8.000000 1.000000 -0.000000 -1.000000 0.000000
-9.000001 -8.000000 1.300070 -0.000000 -1.000000 0.000000
-10.500001 -8.000000 1.300070 -0.000000 -1.000000 0.000000
-7.000001 -7.500001 1.300070 0.000000 -0.000000 1.000000
-7.500001 -7.500001 1.300070 0.000000 -0.000000 1.000000
-7.500001 -8.000001 1.300070 0.000000 -0.000000 1.000000
-7.000001 -8.000001 1.300070 0.000000 -0.000000 1.000000
-6.999999 -4.000001 1.300070 0.000000 -0.000000 1.000000
-7.499999 -4.000001 1.300070 0.000000 -0.000000 1.000000
-10.500001 -7.500000 1.300070 0.000000 -0.000000 1.000000
-11.000000 -7.500000 1.300070 0.000000 -0.000000 1.000000
-11.000001 -7.999999 1.300070 0.000000 -0.000000 1.000000
-10.500001 -8.000000 1.300070 0.000000 -0.000000 1.000000
-9.000001 -7.500000 1.000000 0.000000 0.000000 1.000000
-7.500001 -7.500001 1.000000 0.000000 0.000000 1.000000
-7.500000 -6.000001 1.000000 0.000000 0.000000 1.000000
-11.000000 -4.000000 1.300070 0.000000 -0.000000 1.000000
-11.000000 -4.500000 1.300070 0.000000 -0.000000 1.000000
-9.000001 -7.500000 1.000000 0.000000 1.000000 0.000000
-10.500001 -7.500000 1.000000 0.000000 1.000000 0.000000
-10.500001 -7.500000 1.300070 0.000000 1.000000 0.000000
-9.000001 -7.500000 1.300070 0.000000 1.000000 0.000000
-9.000001 -8.000000 1.000000 -0.000001 -1.000000 0.000000
-7.500001 -8.000001 1.000000 -0.000001 -1.000000 0.000000
-7.500001 -8.000001 1.300070 -0.000001 -1.000000 0.000000
-9.000001 -8.000000 1.300070 -0.000001 -1.000000 0.000000
-11.000000 -4.000000 1.000000 -1.000000 0.000000 -0.000000
-11.000000 -4.500000 1.000000 -1.000000 0.000000 -0.000000
-11.000000 -4.500000 1.300070 -1.000000 0.000000 -0.000000
-11.000000 -4.000000 1.300070 -1.000000 0.000000 -0.000000
-7.500000 -4.500001 1.000000 0.000000 0.000000 1.000000
-10.500001 -7.500000 1.000000 1.000000 -0.000001 0.000000
-10.500000 -6.000000 1.000000 1.000000 -0.000001 0.000000
-10.500000 -6.000000 1.300070 1.000000 -0.000001 0.000000
-10.500001 -7.500000 1.300070 1.000000 -0.000001 0.000000
-9.000001 -7.500000 1.300070 0.000000 -0.000000 1.000000
-9.000001 -8.000000 1.300070 0.000000 -0.000000 1.000000
-10.500001 -7.500000 1.000000 0.000000 -0.000000 1.000000
-11.000000 -7.500000 1.000000 -1.000000 0.000002 0.000000
-11.000001 -7.999999 1.000000 -1.000000 0.000002 0.000000
-11.000001 -7.999999 1.300070 -1.000000 0.000002 0.000000
-11.000000 -7.500000 1.300070 -1.000000 0.000002 0.000000
-7.500001 -7.500001 1.000000 0.000001 1.000000 0.000000
-9.000001 -7.500000 1.000000 0.000001 1.000000 0.000000
-9.000001 -7.500000 1.300070 0.000001 1.000000 0.000000
-7.500001 -7.500001 1.300070 0.000001 1.000000 0.000000
-11.000000 -6.000000 1.300070 0.000000 0.000000 1.000000
-10.500000 -6.000000 1.300070 0.000000 0.000000 1.000000
-10.500000 -6.000000 1.000000 1.000000 0.000000 0.000000
-10.500000 -4.500000 1.000000 1.000000 0.000000 0.000000
-10.500000 -4.500000 1.300070 1.000000 0.000000 0.000000
-10.500000 -6.000000 1.300070 1.000000 0.000000 0.000000
-7.000000 -6.000001 1.000000 1.000000 -0.000001 0.000000
-7.000000 -6.000001 1.300070 1.000000 -0.000001 0.000000
-7.500000 -4.500001 1.000000 -0.000000 -1.000000 0.000000
-7.500000 -4.500001 1.300070 -0.000000 -1.000000 0.000000
-11.000000 -4.000000 1.300070 0.000000 1.000000 0.000000
-6.999999 -4.500001 1.000000 1.000000 -0.000001 0.000000
-6.999999 -4.500001 1.300070 1.000000 -0.000001 0.000000
-10.500001 -8.000000 1.300070 -0.000001 -1.000000 0.000000
-11.000001 -7.999999 1.300070 -0.000001 -1.000000 0.000000
4 0 1 2 3
4 4 5 6 7
3 8 9 10
3 11 12 13
3 8 10 14
3 15 16 17
3 18 15 17
3 19 20 21
3 22 23 24
3 19 21 25
3 26 27 28
3 29 30 31
3 32 33 34
3 35 36 37
3 38 39 40
3 41 42 32
3 43 41 32
3 44 45 46
3 46 47 48
3 49 50 51
3 52 53 5
3 46 54 44
4 55 56 57 58
4 59 60 61 62
4 63 64 65 66
4 67 68 69 70
4 71 72 73 74
4 75 76 77 78
4 79 80 81 82
4 83 84 85 86
4 29 87 88 89
4 90 91 92 93
4 94 95 96 97
4 30 98 99 100
4 101 102 103 104
4 105 106 75 78
4 107 108 109 110
4 73 111 112 113
4 56 114 115 57
4 116 117 118 119
4 120 121 122 123
4 124 125 126 127
4 76 102 101 77
4 125 63 66 126
4 74 73 113 128
4 129 130 131 132
4 102 133 134 103
4 73 72 135 111
4 136 137 138 139
4 140 141 142 143
4 144 108 107 145
4 91 4 7 92
4 106 55 58 75
4 57 115 144 145
4 146 147 148 149
4 68 150 151 69
4 133 107 110 134
4 95 152 153 96
4 5 53 154 6
4 150 155 156 151
4 27 26 157 158
