ply
format ascii 1.0
comment Created by Blender 2.79 (sub 0) - www.blender.org, source file: ''
element vertex 72
property float x
property float y
property float z
property float nx
property float ny
property float nz
element face 39
property list uchar uint vertex_indices
end_header
-2.000000 -4.000000 0.000000 0.000000 0.000000 -1.000000
-2.000000 -8.000000 0.000000 0.000000 0.000000 -1.000000
-6.000000 -8.000000 0.000000 0.000000 0.000000 -1.000000
-5.999999 -3.999999 0.000000 0.000000 0.000000 -1.000000
-4.800001 -6.800000 1.000000 0.000000 -0.000000 1.000000
-6.000000 -7.000000 1.000000 0.000000 -0.000000 1.000000
-6.000001 -7.999999 1.000000 0.000000 -0.000000 1.000000
-5.000001 -8.000000 1.000000 0.000000 -0.000000 1.000000
-2.000000 -8.000000 0.000000 1.000000 0.000000 -0.000001
-2.000000 -4.000000 0.000000 1.000000 0.000000 -0.000001
-1.999999 -4.000001 1.000000 1.000000 0.000000 -0.000001
-2.000000 -5.000001 1.000000 0.000000 0.000000 -1.000000
-2.000000 -6.000001 1.000000 0.000000 0.000000 -1.000000
-2.000001 -7.000001 1.000000 0.000000 0.000000 -1.000000
-2.000000 -8.000000 0.000000 1.000000 -0.000000 0.000001
-1.999999 -4.000001 1.000000 1.000000 -0.000000 0.000001
-2.000000 -5.000001 1.000000 1.000000 -0.000000 0.000001
-2.000001 -7.000001 1.000000 1.000000 -0.000001 0.000001
-2.000001 -8.000001 1.000000 1.000000 -0.000001 0.000001
-2.000000 -8.000000 0.000000 1.000000 -0.000001 0.000001
-2.000000 -5.000001 1.000000 1.000000 -0.000001 0.000001
-6.000000 -8.000000 0.000000 -0.000000 -1.000000 -0.000001
-2.000000 -8.000000 0.000000 -0.000000 -1.000000 -0.000001
-2.000001 -8.000001 1.000000 -0.000000 -1.000000 -0.000001
-3.000001 -8.000001 1.000000 -0.000000 0.000000 1.000000
-4.000001 -8.000000 1.000000 -0.000000 0.000000 1.000000
-3.000001 -8.000001 1.000000 0.000000 -1.000000 -0.000001
-5.000001 -8.000000 1.000000 -0.000001 -1.000000 0.000000
-6.000001 -7.999999 1.000000 -0.000001 -1.000000 0.000000
-6.000000 -8.000000 0.000000 -0.000001 -1.000000 0.000000
-3.000001 -8.000001 1.000000 -0.000000 -1.000000 -0.000000
-5.000001 -8.000000 1.000000 -0.000000 -1.000000 -0.000000
-6.000000 -8.000000 0.000000 -0.000000 -1.000000 -0.000000
-5.999999 -3.999999 0.000000 -1.000000 0.000000 -0.000001
-6.000000 -8.000000 0.000000 -1.000000 0.000000 -0.000001
-6.000001 -7.999999 1.000000 -1.000000 0.000000 -0.000001
-6.000000 -6.000000 1.000000 0.000000 0.000000 1.000000
-6.000000 -5.000000 1.000000 0.000000 0.000000 1.000000
-5.999999 -3.999999 0.000000 -1.000000 0.000000 0.000000
-6.000001 -7.999999 1.000000 -1.000000 0.000000 0.000000
-6.000000 -7.000000 1.000000 -1.000000 0.000000 0.000000
-6.000000 -5.000000 1.000000 -1.000000 -0.000000 -0.000001
-6.000000 -4.000000 1.000000 -1.000000 -0.000000 -0.000001
-6.000000 -7.000000 1.000000 -1.000000 0.000000 -0.000001
-2.999999 -4.000001 1.000000 0.000000 1.000000 0.000001
-1.999999 -4.000001 1.000000 0.000000 1.000000 0.000001
-2.000000 -4.000000 0.000000 0.000000 1.000000 0.000001
-5.999999 -3.999999 0.000000 0.000000 1.000000 0.000001
-6.000000 -4.000000 1.000000 0.000000 1.000000 0.000001
-5.000000 -4.000000 1.000000 0.000000 0.000000 -1.000000
-4.000000 -4.000000 1.000000 0.000000 0.000000 -1.000000
-2.999999 -4.000001 1.000000 0.000000 0.000000 -1.000000
-2.000000 -4.000000 0.000000 0.000000 1.000000 0.000000
-6.000000 -4.000000 1.000000 0.000000 1.000000 0.000000
-5.000000 -4.000000 1.000000 0.000000 1.000000 0.000000
-5.000000 -4.000000 1.000000 0.000000 1.000000 0.000001
-3.000000 -6.000001 1.000000 0.000000 0.000000 1.000000
-3.200001 -6.800001 1.000000 0.000000 0.000000 1.000000
-2.000001 -7.000001 1.000000 0.000000 0.000000 1.000000
-2.000000 -6.000001 1.000000 0.000000 0.000000 1.000000
-5.000000 -6.000000 1.000000 0.000000 0.000000 1.000000
-4.800000 -5.200000 1.000000 0.000000 0.000000 1.000000
-5.000000 -4.000000 1.000000 0.000000 -0.000000 1.000000
-6.000000 -4.000000 1.000000 0.000000 -0.000000 1.000000
-4.000000 -4.000000 1.000000 0.000000 -0.000000 1.000000
-4.000000 -5.000000 1.000000 0.000000 -0.000000 1.000000
-1.999999 -4.000001 1.000000 0.000000 -0.000000 1.000000
-2.999999 -4.000001 1.000000 0.000000 -0.000000 1.000000
-3.200000 -5.200001 1.000000 0.000000 -0.000000 1.000000
-2.000000 -5.000001 1.000000 0.000000 -0.000000 1.000000
-2.000001 -8.000001 1.000000 0.000000 -0.000000 1.000000
-4.000000 -7.000000 1.000000 0.000000 -0.000000 1.000000
4 0 1 2 3
4 4 5 6 7
3 8 9 10
3 11 12 13
3 14 15 16
3 17 18 19
3 20 17 19
3 21 22 23
3 24 25 7
3 21 23 26
3 27 28 29
3 30 31 32
3 33 34 35
3 5 36 37
3 38 39 40
3 41 42 33
3 43 41 33
3 44 45 46
3 46 47 48
3 49 50 51
3 52 53 54
3 46 55 44
4 56 57 58 59
4 36 60 61 37
4 62 63 37 61
4 64 62 61 65
4 66 67 68 69
4 58 57 24 70
4 71 4 7 25
4 57 71 25 24
3 68 65 61
3 61 60 4
3 4 71 57
3 57 56 68
3 68 61 4
3 4 57 68
4 67 64 65 68
4 5 4 60 36
4 68 56 59 69
