ply
format ascii 1.0
comment Created by Blender 2.79 (sub 0) - www.blender.org, source file: ''
element vertex 108
property float x
property float y
property float z
property float nx
property float ny
property float nz
element face 38
property list uchar uint vertex_indices
end_header
-9.773105 -0.763045 0.000000 0.000000 0.000000 -1.000000
-9.773106 -2.000000 0.000000 0.000000 0.000000 -1.000000
-11.000000 -2.000000 0.000000 0.000000 0.000000 -1.000000
-11.000000 -0.763045 0.000000 0.000000 0.000000 -1.000000
-9.773106 -0.763045 1.928344 -0.333886 -0.331170 0.882523
-11.000000 -0.763045 1.000000 -0.333886 -0.331170 0.882523
-11.000001 -1.999999 1.000000 -0.333886 -0.331170 0.882523
-9.773106 -2.000000 1.000000 -0.333886 -0.331170 0.882523
-7.000000 -0.763045 0.000000 1.000000 -0.000000 0.000001
-7.000000 -0.763046 1.000000 1.000000 -0.000000 0.000001
-7.000001 -2.000001 1.000000 1.000000 -0.000000 0.000001
-7.000000 -2.000000 0.000000 1.000000 -0.000000 0.000001
-9.773106 -2.000000 0.000000 -0.000000 -1.000000 0.000000
-9.773106 -2.000000 1.000000 -0.000000 -1.000000 0.000000
-11.000001 -1.999999 1.000000 -0.000000 -1.000000 0.000000
-11.000000 -2.000000 0.000000 -0.000000 -1.000000 0.000000
-11.000000 0.918673 0.000000 -1.000000 0.000000 -0.000000
-11.000000 0.918673 1.000000 -1.000000 0.000000 -0.000000
-11.000000 2.000000 1.000000 -1.000000 0.000000 -0.000000
-10.999999 2.000001 0.000000 -1.000000 0.000000 -0.000000
-9.773105 2.000000 1.000000 0.000000 1.000000 0.000001
-9.773105 2.000000 0.000000 0.000000 1.000000 0.000001
-10.999999 2.000001 0.000000 0.000000 1.000000 0.000001
-11.000000 2.000000 1.000000 0.000000 1.000000 0.000001
-11.000000 -2.000000 0.000000 -1.000000 0.000000 -0.000000
-11.000001 -1.999999 1.000000 -1.000000 0.000000 -0.000000
-11.000000 -0.763045 1.000000 -1.000000 0.000000 -0.000000
-11.000000 -0.763045 0.000000 -1.000000 0.000000 -0.000000
-7.000000 0.104158 0.000000 1.000000 -0.000000 0.000000
-7.000000 0.104157 1.000000 1.000000 -0.000000 0.000000
-7.000000 -0.763046 1.000000 1.000000 -0.000000 0.000000
-7.000000 -0.763045 0.000000 1.000000 -0.000000 0.000000
-9.773106 0.104158 1.000000 -0.316417 0.447658 0.836351
-11.000000 0.104158 1.000000 -0.316417 0.447658 0.836351
-11.000000 -0.763045 1.000000 -0.316417 0.447658 0.836351
-9.773106 -0.763045 1.928344 -0.316417 0.447658 0.836351
-9.773105 0.104158 0.000000 0.000000 0.000000 -1.000000
-11.000000 0.104159 0.000000 0.000000 0.000000 -1.000000
-7.000000 0.104158 0.000000 0.000000 0.000000 -1.000000
-7.000000 -0.763045 0.000000 0.000000 0.000000 -1.000000
-8.331201 -0.763045 0.000000 0.000000 0.000000 -1.000000
-8.331201 0.104158 0.000000 0.000000 0.000000 -1.000000
-7.000000 0.104157 1.000000 0.426165 0.270076 0.863390
-8.331201 0.104157 1.385805 0.426165 0.270076 0.863390
-8.331202 -0.763046 1.928344 0.426165 0.270076 0.863390
-7.000000 -0.763046 1.000000 0.426165 0.270076 0.863390
-6.999999 1.999999 1.000000 0.000000 1.000000 0.000001
-7.000000 2.000000 0.000000 0.000000 1.000000 0.000001
-8.331201 2.000000 0.000000 0.000000 1.000000 0.000001
-8.331200 1.999999 1.000000 0.000000 1.000000 0.000001
-7.000000 -2.000000 0.000000 -0.000000 -1.000000 -0.000001
-7.000001 -2.000001 1.000000 -0.000000 -1.000000 -0.000001
-8.331202 -2.000000 1.000000 -0.000000 -1.000000 -0.000001
-8.331201 -2.000000 0.000000 -0.000000 -1.000000 -0.000001
-7.000000 -0.763046 1.000000 0.310340 -0.333985 0.890024
-8.331202 -0.763046 1.928344 0.310340 -0.333985 0.890024
-8.331202 -2.000000 1.000000 0.310340 -0.333985 0.890024
-7.000001 -2.000001 1.000000 0.310340 -0.333985 0.890024
-7.000000 -2.000000 0.000000 0.000000 0.000000 -1.000000
-8.331201 -2.000000 0.000000 0.000000 0.000000 -1.000000
-6.999999 1.999999 1.000000 0.141227 0.173861 0.974591
-8.331200 1.999999 1.000000 0.141227 0.173861 0.974591
-8.331201 0.918672 1.385805 0.141227 0.173861 0.974591
-7.000000 0.918671 1.000000 0.141227 0.173861 0.974591
-7.000000 2.000000 0.000000 0.000000 0.000000 -1.000000
-7.000000 0.918672 0.000000 0.000000 0.000000 -1.000000
-8.331201 0.918672 0.000000 0.000000 0.000000 -1.000000
-8.331201 2.000000 0.000000 0.000000 0.000000 -1.000000
-9.773105 2.000000 0.000000 0.000000 0.000000 -1.000000
-9.773105 0.918673 0.000000 0.000000 0.000000 -1.000000
-11.000000 0.918673 0.000000 0.000000 0.000000 -1.000000
-10.999999 2.000001 0.000000 0.000000 0.000000 -1.000000
-9.773105 2.000000 1.000000 0.000000 -0.000000 1.000000
-11.000000 2.000000 1.000000 0.000000 -0.000000 1.000000
-11.000000 0.918673 1.000000 0.000000 -0.000000 1.000000
-9.773105 0.918672 1.000000 0.000000 -0.000000 1.000000
-7.000000 2.000000 0.000000 1.000000 -0.000000 -0.000001
-6.999999 1.999999 1.000000 1.000000 -0.000000 -0.000001
-7.000000 0.918671 1.000000 1.000000 -0.000000 -0.000001
-7.000000 0.918672 0.000000 1.000000 -0.000000 -0.000001
-11.000000 0.104159 0.000000 -1.000000 -0.000000 0.000000
-11.000000 0.104158 1.000000 -1.000000 -0.000000 0.000000
-8.331200 1.999999 1.000000 -0.130576 0.174118 0.976029
-9.773105 2.000000 1.000000 -0.130576 0.174118 0.976029
-9.773105 0.918672 1.000000 -0.130576 0.174118 0.976029
-8.331201 0.918672 1.385805 -0.130576 0.174118 0.976029
-8.331201 0.104157 1.385805 -0.101505 0.643449 0.758729
-9.773106 0.104158 1.000000 -0.101505 0.643449 0.758729
-9.773106 -0.763045 1.928344 -0.101505 0.643449 0.758729
-8.331202 -0.763046 1.928344 -0.101505 0.643449 0.758729
-8.331201 -2.000000 0.000000 -0.000000 -1.000000 -0.000000
-8.331202 -2.000000 1.000000 -0.000000 -1.000000 -0.000000
-8.331202 -0.763046 1.928344 -0.000000 -0.600260 0.799805
-9.773106 -0.763045 1.928344 -0.000000 -0.600260 0.799805
-9.773106 -2.000000 1.000000 -0.000000 -0.600260 0.799805
-8.331202 -2.000000 1.000000 -0.000000 -0.600260 0.799805
-8.331201 0.918672 1.385805 -0.258474 0.000000 0.966018
-9.773105 0.918672 1.000000 -0.258474 0.000000 0.966018
-9.773106 0.104158 1.000000 -0.258474 0.000000 0.966018
-8.331201 0.104157 1.385805 -0.258474 0.000000 0.966018
-7.000000 0.918671 1.000000 0.278363 -0.000000 0.960476
-8.331201 0.918672 1.385805 0.278363 -0.000000 0.960476
-8.331201 0.104157 1.385805 0.278363 -0.000000 0.960476
-7.000000 0.104157 1.000000 0.278363 -0.000000 0.960476
-11.000000 0.104158 1.000000 0.000000 -0.000000 1.000000
-9.773106 0.104158 1.000000 0.000000 -0.000000 1.000000
-7.000000 0.918672 0.000000 1.000000 -0.000000 -0.000000
-7.000000 0.918671 1.000000 1.000000 -0.000000 -0.000000
4 0 1 2 3
4 4 5 6 7
4 8 9 10 11
4 12 13 14 15
4 16 17 18 19
4 20 21 22 23
4 24 25 26 27
4 28 29 30 31
4 32 33 34 35
4 36 0 3 37
4 38 39 40 41
4 42 43 44 45
4 46 47 48 49
4 50 51 52 53
4 54 55 56 57
4 39 58 59 40
4 60 61 62 63
4 64 65 66 67
4 68 69 70 71
4 72 73 74 75
4 76 77 78 79
4 80 81 17 16
4 82 83 84 85
4 67 66 69 68
4 41 40 0 36
4 86 87 88 89
4 49 48 21 20
4 90 91 13 12
4 92 93 94 95
4 40 59 1 0
4 96 97 98 99
4 66 41 36 69
4 27 26 81 80
4 100 101 102 103
4 65 38 41 66
4 69 36 37 70
4 75 74 104 105
4 106 107 29 28
