ply
format ascii 1.0
comment Created by Blender 2.79 (sub 0) - www.blender.org, source file: ''
element vertex 144
property float x
property float y
property float z
property float nx
property float ny
property float nz
element face 65
property list uchar uint vertex_indices
end_header
3.000000 2.000000 0.000000 0.000000 0.000000 -1.000000
3.000000 -2.000000 0.000000 0.000000 0.000000 -1.000000
-1.000000 -2.000000 0.000000 0.000000 0.000000 -1.000000
-0.999999 2.000001 0.000000 0.000000 0.000000 -1.000000
-0.500001 -1.500000 1.000000 0.000000 -0.000000 1.000000
-1.000000 -1.499999 1.000000 0.000000 -0.000000 1.000000
-1.000001 -1.999999 1.000000 0.000000 -0.000000 1.000000
-0.500001 -2.000000 1.000000 0.000000 -0.000000 1.000000
3.000000 -2.000000 0.000000 1.000000 0.000000 -0.000001
3.000000 2.000000 0.000000 1.000000 0.000000 -0.000001
3.000001 1.999999 1.000000 1.000000 0.000000 -0.000001
3.000001 1.499999 1.000000 0.000000 0.000000 1.000000
3.000000 0.499999 1.000000 0.000000 0.000000 1.000000
3.000000 -0.500001 1.000000 0.000000 0.000000 1.000000
3.000000 -2.000000 0.000000 1.000000 -0.000000 0.000001
3.000001 1.999999 1.000000 1.000000 -0.000000 0.000001
3.000001 1.499999 1.000000 1.000000 -0.000000 0.000001
2.999999 -1.500001 1.000000 1.000000 -0.000001 0.000001
2.999999 -2.000001 1.000000 1.000000 -0.000001 0.000001
3.000000 -2.000000 0.000000 1.000000 -0.000001 0.000001
3.000001 1.499999 1.000000 1.000000 -0.000001 0.000001
3.000000 -0.500001 1.000000 1.000000 -0.000001 0.000001
3.000000 -0.500001 1.000000 1.000000 -0.000000 0.000001
2.999999 -1.500001 1.000000 1.000000 -0.000000 0.000001
-1.000000 -2.000000 0.000000 -0.000000 -1.000000 -0.000001
3.000000 -2.000000 0.000000 -0.000000 -1.000000 -0.000001
2.999999 -2.000001 1.000000 -0.000000 -1.000000 -0.000001
2.499999 -2.000001 1.000000 0.000000 0.000000 -1.000000
1.499999 -2.000000 1.000000 0.000000 0.000000 -1.000000
0.499999 -2.000000 1.000000 0.000000 0.000000 -1.000000
-1.000000 -2.000000 0.000000 -0.000000 -1.000000 0.000000
2.999999 -2.000001 1.000000 -0.000000 -1.000000 0.000000
2.499999 -2.000001 1.000000 -0.000000 -1.000000 0.000000
-0.500001 -2.000000 1.000000 -0.000000 -1.000000 0.000000
-1.000001 -1.999999 1.000000 -0.000000 -1.000000 0.000000
0.499999 -2.000000 1.000000 -0.000000 -1.000000 0.000000
-0.999999 2.000001 0.000000 -1.000000 0.000000 -0.000000
-1.000000 -2.000000 0.000000 -1.000000 0.000000 -0.000000
-1.000001 -1.999999 1.000000 -1.000000 0.000000 -0.000000
-1.000000 -1.499999 1.000000 0.000000 -0.000000 -1.000000
-1.000000 -0.500000 1.000000 0.000000 -0.000000 -1.000000
-1.000000 0.500000 1.000000 0.000000 -0.000000 -1.000000
-1.000000 -1.499999 1.000000 -1.000000 0.000000 0.000000
-1.000000 1.500000 1.000000 -1.000000 0.000000 -0.000001
-1.000000 2.000000 1.000000 -1.000000 0.000000 -0.000001
-0.999999 2.000001 0.000000 -1.000000 0.000000 -0.000001
-1.000000 0.500000 1.000000 -1.000000 0.000000 -0.000000
-1.000000 0.500000 1.000000 -1.000000 -0.000000 -0.000001
2.500001 1.999999 1.000000 0.000000 1.000000 0.000001
3.000001 1.999999 1.000000 0.000000 1.000000 0.000001
3.000000 2.000000 0.000000 0.000000 1.000000 0.000001
-0.999999 2.000001 0.000000 0.000000 1.000000 0.000001
-1.000000 2.000000 1.000000 0.000000 1.000000 0.000001
-0.500000 2.000000 1.000000 0.000000 0.000000 1.000000
0.500000 2.000000 1.000000 0.000000 0.000000 1.000000
1.500001 1.999999 1.000000 0.000000 0.000000 1.000000
-0.500000 2.000000 1.000000 0.000000 1.000000 0.000001
1.500001 1.999999 1.000000 0.000000 1.000000 0.000001
1.500000 -0.500000 1.000000 -0.894427 0.000000 0.447214
1.499999 -1.500000 1.000000 -0.894427 0.000000 0.447214
1.999999 -1.000001 2.000000 -0.894427 0.000000 0.447214
-0.500001 -1.500000 1.000000 -0.000000 -0.894427 0.447214
0.499999 -1.500000 1.000000 -0.000000 -0.894427 0.447214
-0.000001 -1.000000 2.000000 -0.000000 -0.894427 0.447214
0.499999 -1.500000 1.000000 0.000000 0.000000 1.000000
0.499999 -2.000000 1.000000 0.000000 0.000000 1.000000
1.499999 -2.000000 1.000000 0.000000 0.000000 1.000000
1.499999 -1.500000 1.000000 0.000000 0.000000 1.000000
-1.000000 -0.500000 1.000000 0.000000 0.000000 1.000000
-0.500000 -0.500000 1.000000 0.000000 0.000000 1.000000
-0.500000 0.500000 1.000000 0.000000 0.000000 1.000000
-1.000000 0.500000 1.000000 0.000000 0.000000 1.000000
2.500000 0.499999 1.000000 0.894427 -0.000000 0.447214
2.500000 1.499999 1.000000 0.894427 -0.000000 0.447214
2.000000 0.999999 2.000000 0.894427 -0.000000 0.447214
2.500000 -0.500001 1.000000 0.000000 0.000000 1.000000
2.499999 -1.500001 1.000000 0.000000 0.000000 1.000000
2.999999 -1.500001 1.000000 0.000000 0.000000 1.000000
0.500000 1.500000 1.000000 0.000000 0.000000 1.000000
0.500000 0.500000 1.000000 0.000000 0.000000 1.000000
1.500000 0.499999 1.000000 0.000000 0.000000 1.000000
1.500000 1.499999 1.000000 0.000000 0.000000 1.000000
-0.500000 0.500000 1.000000 -0.000000 -0.894427 0.447214
0.500000 0.500000 1.000000 -0.000000 -0.894427 0.447214
0.000000 1.000000 2.000000 -0.000000 -0.894427 0.447214
0.499999 -1.500000 1.000000 0.894427 -0.000000 0.447214
0.500000 -0.500000 1.000000 0.894427 -0.000000 0.447214
-0.000001 -1.000000 2.000000 0.894427 -0.000000 0.447214
0.500000 -0.500000 1.000000 0.000000 0.000000 1.000000
1.500000 -0.500000 1.000000 0.000000 0.000000 1.000000
1.500000 -0.500000 1.000000 -0.000000 -0.894427 0.447214
1.000000 -0.000000 2.000000 -0.000000 -0.894427 0.447214
0.500000 -0.500000 1.000000 -0.000000 -0.894427 0.447214
1.500000 0.499999 1.000000 -0.000000 -0.894427 0.447214
2.500000 0.499999 1.000000 -0.000000 -0.894427 0.447214
2.000000 0.999999 2.000000 -0.000000 -0.894427 0.447214
2.499999 -2.000001 1.000000 0.000000 -0.000000 1.000000
0.500000 -0.500000 1.000000 0.000000 0.894427 0.447214
-0.500000 -0.500000 1.000000 0.000000 0.894427 0.447214
-0.000001 -1.000000 2.000000 0.000000 0.894427 0.447214
1.500000 1.499999 1.000000 -0.894427 0.000000 0.447214
1.500000 0.499999 1.000000 -0.894427 0.000000 0.447214
2.000000 0.999999 2.000000 -0.894427 0.000000 0.447214
1.500000 0.499999 1.000000 0.000000 0.894427 0.447214
0.500000 0.500000 1.000000 0.000000 0.894427 0.447214
1.000000 -0.000000 2.000000 0.000000 0.894427 0.447214
2.500000 0.499999 1.000000 0.000000 0.000000 1.000000
2.999999 -2.000001 1.000000 0.000000 -0.000000 1.000000
2.499999 -1.500001 1.000000 0.894427 -0.000000 0.447214
2.500000 -0.500001 1.000000 0.894427 -0.000000 0.447214
1.999999 -1.000001 2.000000 0.894427 -0.000000 0.447214
0.500000 1.500000 1.000000 0.000000 0.894427 0.447214
-0.500000 1.500000 1.000000 0.000000 0.894427 0.447214
0.000000 1.000000 2.000000 0.000000 0.894427 0.447214
-0.500000 -0.500000 1.000000 -0.894427 0.000000 0.447214
-0.500001 -1.500000 1.000000 -0.894427 0.000000 0.447214
-0.000001 -1.000000 2.000000 -0.894427 0.000000 0.447214
2.500001 1.999999 1.000000 0.000000 -0.000000 1.000000
2.500000 1.499999 1.000000 0.000000 -0.000000 1.000000
3.000001 1.999999 1.000000 0.000000 -0.000000 1.000000
2.500000 1.499999 1.000000 0.000000 0.894427 0.447214
1.500000 1.499999 1.000000 0.000000 0.894427 0.447214
2.000000 0.999999 2.000000 0.000000 0.894427 0.447214
-0.500000 1.500000 1.000000 0.000000 0.000000 1.000000
-1.000000 1.500000 1.000000 0.000000 0.000000 1.000000
-1.000000 2.000000 1.000000 0.000000 -0.000000 1.000000
0.500000 -0.500000 1.000000 -0.894427 0.000000 0.447214
1.000000 -0.000000 2.000000 -0.894427 0.000000 0.447214
0.500000 0.500000 1.000000 -0.894427 0.000000 0.447214
2.500000 -0.500001 1.000000 0.000000 0.894427 0.447214
1.500000 -0.500000 1.000000 0.000000 0.894427 0.447214
1.999999 -1.000001 2.000000 0.000000 0.894427 0.447214
1.499999 -1.500000 1.000000 -0.000000 -0.894427 0.447214
2.499999 -1.500001 1.000000 -0.000000 -0.894427 0.447214
1.999999 -1.000001 2.000000 -0.000000 -0.894427 0.447214
0.500000 0.500000 1.000000 0.894427 -0.000000 0.447214
0.500000 1.500000 1.000000 0.894427 -0.000000 0.447214
0.000000 1.000000 2.000000 0.894427 -0.000000 0.447214
-0.500000 1.500000 1.000000 -0.894427 0.000000 0.447214
-0.500000 0.500000 1.000000 -0.894427 0.000000 0.447214
0.000000 1.000000 2.000000 -0.894427 0.000000 0.447214
1.500000 -0.500000 1.000000 0.894427 -0.000000 0.447214
1.500000 0.499999 1.000000 0.894427 -0.000000 0.447214
1.000000 -0.000000 2.000000 0.894427 -0.000000 0.447214
4 0 1 2 3
4 4 5 6 7
3 8 9 10
3 11 12 13
3 14 15 16
3 17 18 19
3 19 20 21
3 22 23 14
3 24 25 26
3 27 28 29
3 30 31 32
3 33 34 30
3 30 32 35
3 35 33 30
3 36 37 38
3 39 40 41
3 36 38 42
3 43 44 45
3 36 42 46
3 47 43 45
3 48 49 50
3 50 51 52
3 53 54 55
3 50 52 56
3 57 48 50
3 50 56 57
3 58 59 60
3 61 62 63
4 64 65 66 67
4 68 69 70 71
3 72 73 74
4 75 76 77 13
4 78 79 80 81
3 82 83 84
3 85 86 87
4 88 64 67 89
3 90 91 92
4 5 4 69 68
3 93 94 95
4 76 67 66 96
3 97 98 99
3 100 101 102
4 69 88 79 70
3 103 104 105
4 89 75 106 80
4 77 76 96 107
3 108 109 110
3 111 112 113
4 64 4 7 65
3 114 115 116
4 117 55 81 118
4 119 117 118 11
3 120 121 122
4 71 70 123 124
4 53 125 124 123
3 126 127 128
4 55 54 78 81
4 54 53 123 78
4 118 106 12 11
3 129 130 131
3 132 133 134
3 135 136 137
3 138 139 140
3 141 142 143
4 12 106 75 13
