ply
format ascii 1.0
comment Created by Blender 2.79 (sub 0) - www.blender.org, source file: ''
element vertex 388
property float x
property float y
property float z
property float nx
property float ny
property float nz
element face 147
property list uchar uint vertex_indices
end_header
-7.000000 8.000000 0.000000 0.000000 0.000000 -1.000000
-7.000000 4.000000 0.000000 0.000000 0.000000 -1.000000
-11.000000 4.000000 0.000000 0.000000 0.000000 -1.000000
-10.999999 8.000001 0.000000 0.000000 0.000000 -1.000000
-10.500001 4.500000 1.000000 0.000000 -0.000000 1.000000
-11.000000 4.500000 1.000000 0.000000 -0.000000 1.000000
-11.000001 4.000001 1.000000 0.000000 -0.000000 1.000000
-10.500001 4.000000 1.000000 0.000000 -0.000000 1.000000
-7.000000 4.000000 0.000000 1.000000 0.000000 -0.000001
-7.000000 8.000000 0.000000 1.000000 0.000000 -0.000001
-6.999999 7.999999 1.000000 1.000000 0.000000 -0.000001
-6.999999 7.499999 1.000000 0.000000 0.000000 0.000000
-7.000000 6.999999 1.000000 0.000000 0.000000 0.000000
-7.000000 6.499999 1.000000 0.000000 0.000000 0.000000
-6.999999 7.499999 1.000000 1.000000 0.000000 -0.000001
-7.000001 4.499999 1.000000 1.000000 -0.000001 0.000001
-7.000001 3.999999 1.000000 1.000000 -0.000001 0.000001
-7.000000 4.000000 0.000000 1.000000 -0.000001 0.000001
-7.000000 5.999999 1.000000 0.000000 0.000000 0.000000
-7.000000 5.499999 1.000000 0.000000 0.000000 0.000000
-7.000001 4.999999 1.000000 0.000000 0.000000 0.000000
-7.000001 4.999999 1.000000 1.000000 -0.000000 0.000001
-7.000001 4.499999 1.000000 1.000000 -0.000000 0.000001
-7.000000 4.000000 0.000000 1.000000 -0.000000 0.000001
-7.000000 4.000000 0.000000 1.000000 -0.000001 0.000002
-6.999999 7.499999 1.000000 1.000000 -0.000001 0.000002
-7.000000 6.499999 1.000000 1.000000 -0.000001 0.000002
-7.000000 5.999999 1.000000 1.000000 -0.000001 0.000002
-7.000001 4.999999 1.000000 1.000000 -0.000001 0.000002
-7.000000 6.499999 1.000000 1.000000 0.000000 0.000000
-7.000000 5.999999 1.000000 1.000000 0.000000 0.000000
-7.000000 4.000000 0.000000 1.000000 0.000000 0.000000
-11.000000 4.000000 0.000000 -0.000000 -1.000000 -0.000001
-7.000000 4.000000 0.000000 -0.000000 -1.000000 -0.000001
-7.000001 3.999999 1.000000 -0.000000 -1.000000 -0.000001
-7.500001 3.999999 1.000000 0.000000 0.000000 0.000000
-8.000001 3.999999 1.000000 0.000000 0.000000 0.000000
-8.500001 4.000000 1.000000 0.000000 0.000000 0.000000
-11.000000 4.000000 0.000000 -0.000000 -1.000000 0.000000
-7.000001 3.999999 1.000000 -0.000000 -1.000000 0.000000
-7.500001 3.999999 1.000000 -0.000000 -1.000000 0.000000
-10.500001 4.000000 1.000000 -0.000001 -1.000000 0.000000
-11.000001 4.000001 1.000000 -0.000001 -1.000000 0.000000
-11.000000 4.000000 0.000000 -0.000001 -1.000000 0.000000
-9.000001 4.000000 1.000000 -0.000000 0.000000 1.000000
-9.500001 4.000000 1.000000 -0.000000 0.000000 1.000000
-10.000001 4.000000 1.000000 -0.000000 0.000000 1.000000
-10.000001 4.000000 1.000000 -0.000001 -1.000000 0.000000
-8.500001 4.000000 1.000000 -0.000000 -1.000000 0.000000
-9.000001 4.000000 1.000000 -0.000000 -1.000000 -0.000000
-10.000001 4.000000 1.000000 -0.000000 -1.000000 -0.000000
-10.999999 8.000001 0.000000 -1.000000 0.000000 -0.000001
-11.000000 4.000000 0.000000 -1.000000 0.000000 -0.000001
-11.000001 4.000001 1.000000 -1.000000 0.000000 -0.000001
-11.000000 4.500000 1.000000 0.000000 0.000000 0.000000
-11.000000 5.000000 1.000000 0.000000 0.000000 0.000000
-11.000000 5.500000 1.000000 0.000000 0.000000 0.000000
-10.999999 8.000001 0.000000 -1.000000 0.000002 0.000006
-11.000001 4.000001 1.000000 -1.000000 0.000002 0.000006
-11.000000 4.500000 1.000000 -1.000000 0.000002 0.000006
-11.000000 7.500000 1.000000 -1.000000 -0.000000 -0.000001
-11.000000 8.000000 1.000000 -1.000000 -0.000000 -0.000001
-11.000000 6.000000 1.000000 0.000000 0.000000 0.000000
-11.000000 6.500000 1.000000 0.000000 0.000000 0.000000
-11.000000 7.000000 1.000000 0.000000 0.000000 0.000000
-11.000000 7.000000 1.000000 -1.000000 -0.000000 -0.000001
-11.000000 4.500000 1.000000 -1.000000 -0.000000 -0.000001
-11.000000 5.500000 1.000000 -1.000000 -0.000000 -0.000001
-11.000000 6.000000 1.000000 -1.000000 -0.000000 -0.000001
-7.499999 7.999999 1.000000 0.000000 1.000000 0.000001
-6.999999 7.999999 1.000000 0.000000 1.000000 0.000001
-7.000000 8.000000 0.000000 0.000000 1.000000 0.000001
-10.999999 8.000001 0.000000 0.000000 1.000000 0.000001
-11.000000 8.000000 1.000000 0.000000 1.000000 0.000001
-10.500000 8.000000 1.000000 0.000000 0.000000 -1.000000
-10.000000 8.000000 1.000000 0.000000 0.000000 -1.000000
-9.500000 8.000000 1.000000 0.000000 0.000000 -1.000000
-7.000000 8.000000 0.000000 0.000000 1.000000 0.000000
-11.000000 8.000000 1.000000 0.000000 1.000000 0.000000
-10.500000 8.000000 1.000000 0.000000 1.000000 0.000000
-7.999999 7.999999 1.000000 0.000000 1.000000 0.000001
-9.500000 8.000000 1.000000 0.000000 0.000000 0.000000
-9.000000 8.000000 1.000000 0.000000 0.000000 0.000000
-8.499999 8.000000 1.000000 0.000000 0.000000 0.000000
-8.499999 8.000000 1.000000 0.000001 1.000000 0.000002
-7.999999 7.999999 1.000000 0.000001 1.000000 0.000002
-7.000000 8.000000 0.000000 0.000001 1.000000 0.000002
-7.000000 8.000000 0.000000 0.000000 1.000000 0.000002
-10.500000 8.000000 1.000000 0.000000 1.000000 0.000002
-9.500000 8.000000 1.000000 0.000000 1.000000 0.000002
-9.500000 8.000000 1.000000 0.000000 1.000000 0.000000
-8.499999 8.000000 1.000000 0.000000 1.000000 0.000000
-8.500001 4.500000 1.000000 0.000000 -0.000000 1.000000
-9.000001 4.500000 1.000000 0.000000 -0.000000 1.000000
-8.500001 4.000000 1.000000 0.000000 -0.000000 1.000000
-8.500000 6.500000 1.000000 0.000000 -0.000000 1.000000
-9.000000 6.500000 1.000000 0.000000 -0.000000 1.000000
-9.000000 6.000000 1.000000 0.000000 -0.000000 1.000000
-8.500000 6.000000 1.000000 0.000000 -0.000000 1.000000
-10.500000 6.500000 1.000000 0.000000 -0.000000 1.000000
-11.000000 6.500000 1.000000 0.000000 -0.000000 1.000000
-11.000000 6.000000 1.000000 0.000000 -0.000000 1.000000
-10.500000 6.000000 1.000000 0.000000 -0.000000 1.000000
-9.500000 6.500000 1.000000 0.000000 -0.000000 1.000000
-10.000000 6.500000 1.000000 0.000000 -0.000000 1.000000
-10.000000 6.000000 1.000000 0.000000 -0.000000 1.000000
-9.500000 6.000000 1.000000 0.000000 -0.000000 1.000000
-9.500000 7.500000 1.000000 0.000000 -0.000000 1.000000
-10.000000 7.500000 1.000000 0.000000 -0.000000 1.000000
-10.000000 7.000000 1.000000 0.000000 -0.000000 1.000000
-9.500000 7.000000 1.000000 0.000000 -0.000000 1.000000
-10.500000 7.500000 1.000000 0.000000 -0.000000 1.000000
-11.000000 7.500000 1.000000 0.000000 -0.000000 1.000000
-11.000000 7.000000 1.000000 0.000000 -0.000000 1.000000
-10.500000 7.000000 1.000000 0.000000 -0.000000 1.000000
-8.500001 4.500000 1.000000 1.000000 0.000000 0.000000
-8.500001 5.000000 1.000000 1.000000 0.000000 0.000000
-8.500001 5.000000 2.000000 1.000000 0.000000 0.000000
-8.500001 4.500000 2.000000 1.000000 0.000000 0.000000
-7.500000 7.499999 1.000000 0.000000 -0.000000 1.000000
-8.000000 7.499999 1.000000 0.000000 -0.000000 1.000000
-8.000000 6.999999 1.000000 0.000000 -0.000000 1.000000
-7.500000 6.999999 1.000000 0.000000 -0.000000 1.000000
-8.500000 7.500000 1.000000 0.000000 -0.000000 1.000000
-9.000000 7.500000 1.000000 0.000000 -0.000000 1.000000
-9.000000 7.000000 1.000000 0.000000 -0.000000 1.000000
-8.500000 7.000000 1.000000 0.000000 -0.000000 1.000000
-7.500001 4.499999 1.000000 0.000000 -0.000000 1.000000
-8.000001 4.499999 1.000000 0.000000 -0.000000 1.000000
-8.000001 3.999999 1.000000 0.000000 -0.000000 1.000000
-7.500001 3.999999 1.000000 0.000000 -0.000000 1.000000
-7.500001 4.999999 1.000000 1.000000 -0.000001 0.000000
-7.500000 5.499999 1.000000 1.000000 -0.000001 0.000000
-7.500000 5.499999 2.000000 1.000000 -0.000001 0.000000
-7.500001 4.999999 2.000000 1.000000 -0.000001 0.000000
-10.500000 5.500000 1.000000 -0.000001 -1.000000 0.000000
-10.000000 5.500000 1.000000 -0.000001 -1.000000 0.000000
-10.000000 5.500000 2.000000 -0.000001 -1.000000 0.000000
-10.500000 5.500000 2.000000 -0.000001 -1.000000 0.000000
-9.500001 4.500000 1.000000 0.000000 -0.000000 1.000000
-10.000001 4.500000 1.000000 0.000000 -0.000000 1.000000
-9.000000 7.500000 1.000000 0.000001 1.000000 0.000000
-9.500000 7.500000 1.000000 0.000001 1.000000 0.000000
-9.500000 7.500000 2.000000 0.000001 1.000000 0.000000
-9.000000 7.500000 2.000000 0.000001 1.000000 0.000000
-10.500000 5.500000 1.000000 0.000000 -0.000000 1.000000
-11.000000 5.500000 1.000000 0.000000 -0.000000 1.000000
-11.000000 5.000000 1.000000 0.000000 -0.000000 1.000000
-10.500000 5.000000 1.000000 0.000000 -0.000000 1.000000
-10.000000 5.500000 1.000000 0.000000 -0.000000 1.000000
-10.000001 5.000000 1.000000 0.000000 -0.000000 1.000000
-8.500000 5.500000 1.000000 0.000000 1.000000 0.000000
-9.000001 5.500000 1.000000 0.000000 1.000000 0.000000
-9.000001 5.500000 2.000000 0.000000 1.000000 0.000000
-8.500000 5.500000 2.000000 0.000000 1.000000 0.000000
-8.000000 6.499999 1.000000 1.000000 0.000000 0.000000
-8.000000 6.999999 1.000000 1.000000 0.000000 0.000000
-8.000000 6.999999 2.000000 1.000000 0.000000 0.000000
-8.000000 6.499999 2.000000 1.000000 0.000000 0.000000
-9.500000 5.500000 1.000000 0.000000 -0.000000 1.000000
-9.000001 5.500000 1.000000 0.000000 -0.000000 1.000000
-9.000000 6.500000 1.000000 0.000000 -1.000000 -0.000000
-8.500000 6.500000 1.000000 0.000000 -1.000000 -0.000000
-8.500000 6.500000 2.000000 0.000000 -1.000000 -0.000000
-9.000000 6.500000 2.000000 0.000000 -1.000000 -0.000000
-9.000001 5.000000 1.000000 0.000000 -0.000000 1.000000
-9.500001 5.000000 1.000000 0.000000 -0.000000 1.000000
-8.000000 7.499999 1.000000 0.000001 1.000000 0.000000
-8.500000 7.500000 1.000000 0.000001 1.000000 0.000000
-8.500000 7.500000 2.000000 0.000001 1.000000 0.000000
-8.000000 7.499999 2.000000 0.000001 1.000000 0.000000
-10.500000 6.000000 1.000000 -1.000000 0.000000 -0.000000
-10.500000 5.500000 1.000000 -1.000000 0.000000 -0.000000
-10.500000 5.500000 2.000000 -1.000000 0.000000 -0.000000
-10.500000 6.000000 2.000000 -1.000000 0.000000 -0.000000
-8.000000 5.999999 1.000000 0.000000 -0.000000 1.000000
-8.500000 5.500000 1.000000 0.000000 -0.000000 1.000000
-8.000000 5.499999 1.000000 0.000000 -0.000000 1.000000
-7.000000 5.499999 1.000000 0.000000 -0.000000 1.000000
-7.500000 5.499999 1.000000 0.000000 -0.000000 1.000000
-7.500001 4.999999 1.000000 0.000000 -0.000000 1.000000
-7.000001 4.999999 1.000000 0.000000 -0.000000 1.000000
-7.000000 5.999999 1.000000 0.000000 -0.000000 1.000000
-7.500000 5.999999 1.000000 0.000000 -0.000000 1.000000
-7.000001 4.499999 1.000000 0.000000 -0.000000 1.000000
-7.000001 3.999999 1.000000 0.000000 -0.000000 1.000000
-8.000001 4.999999 1.000000 0.000000 -0.000000 1.000000
-8.500000 7.000000 1.000000 -0.000001 -1.000000 0.000000
-8.000000 6.999999 1.000000 -0.000001 -1.000000 0.000000
-8.000000 6.999999 2.000000 -0.000001 -1.000000 0.000000
-8.500000 7.000000 2.000000 -0.000001 -1.000000 0.000000
-7.999999 7.999999 1.000000 0.000000 -0.000000 1.000000
-8.499999 8.000000 1.000000 0.000000 -0.000000 1.000000
-9.000000 8.000000 1.000000 0.000000 -0.000000 1.000000
-6.999999 7.499999 1.000000 0.000000 -0.000000 1.000000
-7.000000 6.999999 1.000000 0.000000 -0.000000 1.000000
-6.999999 7.999999 1.000000 0.000000 -0.000000 1.000000
-7.499999 7.999999 1.000000 0.000000 -0.000000 1.000000
-7.000000 6.499999 1.000000 0.000000 -0.000000 1.000000
-7.500000 6.499999 1.000000 0.000000 -0.000000 1.000000
-8.000000 6.499999 1.000000 0.000000 -0.000000 1.000000
-10.000000 8.000000 1.000000 0.000000 -0.000000 1.000000
-10.500000 8.000000 1.000000 0.000000 -0.000000 1.000000
-11.000000 8.000000 1.000000 0.000000 -0.000000 1.000000
-10.000000 7.000000 1.000000 0.000000 1.000000 0.000000
-10.500000 7.000000 1.000000 0.000000 1.000000 0.000000
-10.500000 7.000000 2.000000 0.000000 1.000000 0.000000
-10.000000 7.000000 2.000000 0.000000 1.000000 0.000000
-9.500000 8.000000 1.000000 0.000000 -0.000000 1.000000
-8.000000 5.499999 1.000000 0.000001 1.000000 0.000000
-8.500000 5.500000 1.000000 0.000001 1.000000 0.000000
-8.500000 5.500000 2.000000 0.000001 1.000000 0.000000
-8.000000 5.499999 2.000000 0.000001 1.000000 0.000000
-9.500000 7.500000 1.000000 -1.000000 0.000000 -0.000000
-9.500000 7.000000 1.000000 -1.000000 0.000000 -0.000000
-9.500000 7.000000 2.000000 -1.000000 0.000000 -0.000000
-9.500000 7.500000 2.000000 -1.000000 0.000000 -0.000000
-9.500000 7.000000 1.000000 0.000000 1.000000 0.000000
-9.500000 7.000000 2.000000 0.000000 1.000000 0.000000
-8.500000 6.500000 1.000000 -1.000000 0.000000 -0.000000
-8.500000 6.000000 1.000000 -1.000000 0.000000 -0.000000
-8.500000 6.000000 2.000000 -1.000000 0.000000 -0.000000
-8.500000 6.500000 2.000000 -1.000000 0.000000 -0.000000
-9.500001 5.000000 1.000000 0.000000 -1.000000 -0.000000
-9.000001 5.000000 1.000000 0.000000 -1.000000 -0.000000
-9.000001 5.000000 2.000000 0.000000 -1.000000 -0.000000
-9.500001 5.000000 2.000000 0.000000 -1.000000 -0.000000
-10.000001 5.000000 1.000000 0.000000 -1.000000 -0.000000
-10.000001 5.000000 2.000000 0.000000 -1.000000 -0.000000
-8.500001 5.000000 1.000000 0.000000 -0.000000 1.000000
-9.500000 6.000000 1.000000 0.000000 1.000000 0.000000
-10.000000 6.000000 1.000000 0.000000 1.000000 0.000000
-10.000000 6.000000 2.000000 0.000000 1.000000 0.000000
-9.500000 6.000000 2.000000 0.000000 1.000000 0.000000
-9.500001 5.000000 1.000000 0.000000 1.000000 0.000000
-10.000001 5.000000 1.000000 0.000000 1.000000 0.000000
-10.000001 5.000000 2.000000 0.000000 1.000000 0.000000
-9.500001 5.000000 2.000000 0.000000 1.000000 0.000000
-7.500000 6.499999 2.000000 0.000000 -0.000000 1.000000
-8.000000 6.499999 2.000000 0.000000 -0.000000 1.000000
-8.000000 5.999999 2.000000 0.000000 -0.000000 1.000000
-7.500000 5.999999 2.000000 0.000000 -0.000000 1.000000
-7.500000 5.499999 2.000000 0.000000 -0.000000 1.000000
-8.000000 5.499999 2.000000 0.000000 -0.000000 1.000000
-8.000001 4.999999 2.000000 0.000000 -0.000000 1.000000
-7.500001 4.999999 2.000000 0.000000 -0.000000 1.000000
-8.500000 5.500000 2.000000 0.000000 -0.000000 1.000000
-9.000001 5.500000 2.000000 0.000000 -0.000000 1.000000
-9.000001 5.000000 2.000000 0.000000 -0.000000 1.000000
-8.500001 5.000000 2.000000 0.000000 -0.000000 1.000000
-9.500000 5.500000 2.000000 0.000000 -0.000000 1.000000
-10.000000 5.500000 2.000000 0.000000 -0.000000 1.000000
-10.000001 5.000000 2.000000 0.000000 -0.000000 1.000000
-9.500001 5.000000 2.000000 0.000000 -0.000000 1.000000
-10.000000 6.000000 2.000000 0.000000 -0.000000 1.000000
-10.500000 6.000000 2.000000 0.000000 -0.000000 1.000000
-10.500000 5.500000 2.000000 0.000000 -0.000000 1.000000
-9.500000 6.000000 2.000000 0.000000 -0.000000 1.000000
-9.000000 7.500000 2.000000 0.000000 -0.000000 1.000000
-9.500000 7.500000 2.000000 0.000000 -0.000000 1.000000
-9.500000 7.000000 2.000000 0.000000 -0.000000 1.000000
-9.000000 7.000000 2.000000 0.000000 -0.000000 1.000000
-9.500000 6.500000 2.000000 0.000000 -0.000000 1.000000
-9.000000 6.500000 2.000000 0.000000 -0.000000 1.000000
-10.000000 7.000000 2.000000 0.000000 -0.000000 1.000000
-10.000000 6.500000 2.000000 0.000000 -0.000000 1.000000
-10.500000 7.000000 2.000000 0.000000 -0.000000 1.000000
-10.500000 6.500000 2.000000 0.000000 -0.000000 1.000000
-8.500000 6.500000 2.000000 0.000000 -0.000000 1.000000
-8.500000 6.000000 2.000000 0.000000 -0.000000 1.000000
-8.000000 6.999999 2.000000 0.000000 -0.000000 1.000000
-8.500000 7.000000 2.000000 0.000000 -0.000000 1.000000
-9.000001 4.500000 2.000000 0.000000 -0.000000 1.000000
-8.500001 4.500000 2.000000 0.000000 -0.000000 1.000000
-8.500000 7.000000 1.000000 0.000000 1.000000 0.000000
-9.000000 7.000000 1.000000 0.000000 1.000000 0.000000
-9.000000 7.000000 2.000000 0.000000 1.000000 0.000000
-8.500000 7.000000 2.000000 0.000000 1.000000 0.000000
-8.000000 6.999999 1.000000 0.000001 1.000000 0.000000
-8.500000 7.000000 1.000000 0.000001 1.000000 0.000000
-8.500000 7.000000 2.000000 0.000001 1.000000 0.000000
-8.000000 6.999999 2.000000 0.000001 1.000000 0.000000
-9.500000 5.500000 1.000000 1.000000 0.000000 0.000000
-9.500000 6.000000 1.000000 1.000000 0.000000 0.000000
-9.500000 6.000000 2.000000 1.000000 0.000000 0.000000
-9.500000 5.500000 2.000000 1.000000 0.000000 0.000000
-7.500000 5.999999 1.000000 1.000000 0.000000 0.000000
-7.500000 6.499999 1.000000 1.000000 0.000000 0.000000
-7.500000 6.499999 2.000000 1.000000 0.000000 0.000000
-7.500000 5.999999 2.000000 1.000000 0.000000 0.000000
-9.000001 4.500000 1.000000 -0.000001 -1.000000 0.000000
-8.500001 4.500000 1.000000 -0.000001 -1.000000 0.000000
-8.500001 4.500000 2.000000 -0.000001 -1.000000 0.000000
-9.000001 4.500000 2.000000 -0.000001 -1.000000 0.000000
-7.500000 5.499999 1.000000 0.000000 1.000000 0.000000
-8.000000 5.499999 1.000000 0.000000 1.000000 0.000000
-8.000000 5.499999 2.000000 0.000000 1.000000 0.000000
-7.500000 5.499999 2.000000 0.000000 1.000000 0.000000
-9.500000 6.500000 1.000000 -0.000001 -1.000000 0.000000
-9.000000 6.500000 1.000000 -0.000001 -1.000000 0.000000
-9.000000 6.500000 2.000000 -0.000001 -1.000000 0.000000
-9.500000 6.500000 2.000000 -0.000001 -1.000000 0.000000
-9.000001 5.500000 1.000000 0.000001 1.000000 0.000000
-9.500000 5.500000 1.000000 0.000001 1.000000 0.000000
-9.500000 5.500000 2.000000 0.000001 1.000000 0.000000
-9.000001 5.500000 2.000000 0.000001 1.000000 0.000000
-10.000000 6.500000 1.000000 0.000000 -1.000000 -0.000000
-9.500000 6.500000 1.000000 0.000000 -1.000000 -0.000000
-9.500000 6.500000 2.000000 0.000000 -1.000000 -0.000000
-10.000000 6.500000 2.000000 0.000000 -1.000000 -0.000000
-8.000001 4.999999 1.000000 0.000000 -1.000000 -0.000000
-7.500001 4.999999 1.000000 0.000000 -1.000000 -0.000000
-7.500001 4.999999 2.000000 0.000000 -1.000000 -0.000000
-8.000001 4.999999 2.000000 0.000000 -1.000000 -0.000000
-9.000000 7.000000 1.000000 1.000000 0.000000 0.000000
-9.000000 7.500000 1.000000 1.000000 0.000000 0.000000
-9.000000 7.500000 2.000000 1.000000 0.000000 0.000000
-9.000000 7.000000 2.000000 1.000000 0.000000 0.000000
-7.500000 6.499999 1.000000 0.000000 1.000000 0.000000
-8.000000 6.499999 1.000000 0.000000 1.000000 0.000000
-8.000000 6.499999 2.000000 0.000000 1.000000 0.000000
-7.500000 6.499999 2.000000 0.000000 1.000000 0.000000
-9.000001 5.000000 1.000000 -1.000000 0.000000 -0.000000
-9.000001 4.500000 1.000000 -1.000000 0.000000 -0.000000
-9.000001 4.500000 2.000000 -1.000000 0.000000 -0.000000
-9.000001 5.000000 2.000000 -1.000000 0.000000 -0.000000
-8.500001 5.000000 1.000000 -0.000001 -1.000000 0.000000
-8.000001 4.999999 1.000000 -0.000001 -1.000000 0.000000
-8.000001 4.999999 2.000000 -0.000001 -1.000000 0.000000
-8.500001 5.000000 2.000000 -0.000001 -1.000000 0.000000
-10.500000 7.000000 1.000000 -1.000000 0.000000 -0.000000
-10.500000 6.500000 1.000000 -1.000000 0.000000 -0.000000
-10.500000 6.500000 2.000000 -1.000000 0.000000 -0.000000
-10.500000 7.000000 2.000000 -1.000000 0.000000 -0.000000
-8.500000 6.000000 1.000000 -0.000001 -1.000000 0.000000
-8.000000 5.999999 1.000000 -0.000001 -1.000000 0.000000
-8.000000 5.999999 2.000000 -0.000001 -1.000000 0.000000
-8.500000 6.000000 2.000000 -0.000001 -1.000000 0.000000
-10.500000 6.500000 1.000000 0.000000 -1.000000 -0.000000
-10.500000 6.500000 2.000000 0.000000 -1.000000 -0.000000
-10.500000 6.000000 1.000000 0.000000 1.000000 0.000000
-10.500000 6.000000 2.000000 0.000000 1.000000 0.000000
-8.000000 5.999999 1.000000 0.000000 -1.000000 -0.000000
-7.500000 5.999999 1.000000 0.000000 -1.000000 -0.000000
-7.500000 5.999999 2.000000 0.000000 -1.000000 -0.000000
-8.000000 5.999999 2.000000 0.000000 -1.000000 -0.000000
-10.000000 5.500000 1.000000 -1.000000 0.000002 0.000000
-10.000001 5.000000 1.000000 -1.000000 0.000002 0.000000
-10.000001 5.000000 2.000000 -1.000000 0.000002 0.000000
-10.000000 5.500000 2.000000 -1.000000 0.000002 0.000000
-9.500001 5.000000 2.000000 0.000000 -0.000000 1.000000
-10.000001 5.000000 2.000000 0.000000 -0.000000 1.000000
-10.000001 4.500000 2.000000 0.000000 -0.000000 1.000000
-9.500001 4.500000 2.000000 0.000000 -0.000000 1.000000
-8.000000 7.499999 2.000000 0.000000 -0.000000 1.000000
-8.500000 7.500000 2.000000 0.000000 -0.000000 1.000000
-8.500000 7.000000 2.000000 0.000000 -0.000000 1.000000
-8.000000 6.999999 2.000000 0.000000 -0.000000 1.000000
-10.500000 5.000000 2.000000 0.000000 -0.000000 1.000000
-10.500001 4.500000 2.000000 0.000000 -0.000000 1.000000
-9.500001 4.500000 1.000000 1.000000 0.000000 0.000000
-9.500001 5.000000 1.000000 1.000000 0.000000 0.000000
-9.500001 5.000000 2.000000 1.000000 0.000000 0.000000
-9.500001 4.500000 2.000000 1.000000 0.000000 0.000000
-10.500000 5.000000 1.000000 -1.000000 0.000002 0.000000
-10.500001 4.500000 1.000000 -1.000000 0.000002 0.000000
-10.500001 4.500000 2.000000 -1.000000 0.000002 0.000000
-10.500000 5.000000 2.000000 -1.000000 0.000002 0.000000
-10.000001 5.000000 1.000000 0.000001 1.000000 0.000000
-10.500000 5.000000 1.000000 0.000001 1.000000 0.000000
-10.500000 5.000000 2.000000 0.000001 1.000000 0.000000
-10.000001 5.000000 2.000000 0.000001 1.000000 0.000000
-8.000000 6.999999 1.000000 1.000000 -0.000001 0.000000
-8.000000 7.499999 1.000000 1.000000 -0.000001 0.000000
-8.000000 7.499999 2.000000 1.000000 -0.000001 0.000000
-8.000000 6.999999 2.000000 1.000000 -0.000001 0.000000
-8.500000 7.500000 1.000000 -1.000000 0.000000 -0.000000
-8.500000 7.000000 1.000000 -1.000000 0.000000 -0.000000
-8.500000 7.000000 2.000000 -1.000000 0.000000 -0.000000
-8.500000 7.500000 2.000000 -1.000000 0.000000 -0.000000
-10.500001 4.500000 1.000000 -0.000001 -1.000000 0.000000
-10.000001 4.500000 1.000000 -0.000001 -1.000000 0.000000
-10.000001 4.500000 2.000000 -0.000001 -1.000000 0.000000
-10.500001 4.500000 2.000000 -0.000001 -1.000000 0.000000
-10.000001 4.500000 1.000000 0.000000 -1.000000 -0.000000
-9.500001 4.500000 1.000000 0.000000 -1.000000 -0.000000
-9.500001 4.500000 2.000000 0.000000 -1.000000 -0.000000
-10.000001 4.500000 2.000000 0.000000 -1.000000 -0.000000
4 0 1 2 3
4 4 5 6 7
3 8 9 10
3 11 12 13
3 8 10 14
3 15 16 17
3 18 19 20
3 21 22 23
3 24 25 26
3 27 28 24
3 29 30 31
3 32 33 34
3 35 36 37
3 38 39 40
3 41 42 43
3 44 45 46
3 47 41 43
3 38 40 48
3 49 50 38
3 48 49 38
3 51 52 53
3 54 55 56
3 57 58 59
3 60 61 51
3 62 63 64
3 65 60 51
3 51 66 67
3 68 65 51
3 67 68 51
3 69 70 71
3 71 72 73
3 74 75 76
3 77 78 79
3 80 69 71
3 81 82 83
3 84 85 86
3 87 88 89
3 77 90 91
4 92 93 44 94
4 95 96 97 98
4 99 100 101 102
4 103 104 105 106
4 107 108 109 110
4 111 112 113 114
4 115 116 117 118
4 119 120 121 122
4 123 124 125 126
4 127 128 129 130
4 131 132 133 134
4 135 136 137 138
4 139 140 46 45
4 141 142 143 144
4 145 146 147 148
4 149 145 148 150
4 151 152 153 154
4 102 101 146 145
4 155 156 157 158
4 97 106 159 160
4 161 162 163 164
4 93 139 45 44
4 165 166 139 93
4 167 168 169 170
4 171 172 173 174
4 175 98 176 177
4 98 97 160 176
4 178 179 180 181
4 182 183 179 178
4 183 175 177 179
4 184 127 130 185
4 181 180 127 184
4 180 186 128 127
4 187 188 189 190
4 191 192 123 120
4 192 193 124 123
4 194 119 122 195
4 196 197 119 194
4 197 191 120 119
4 198 199 183 182
4 195 122 199 198
4 122 121 200 199
4 108 111 114 109
4 201 202 111 108
4 202 203 112 111
4 204 205 206 207
4 193 208 107 124
4 208 201 108 107
4 96 103 106 97
4 209 210 211 212
4 213 214 215 216
4 104 99 102 105
4 217 204 207 218
4 114 113 100 99
4 219 220 221 222
4 223 224 225 226
4 227 223 226 228
4 128 92 94 129
4 186 229 92 128
4 230 231 232 233
4 140 4 7 46
4 234 235 236 237
4 148 147 5 4
4 238 239 240 241
4 242 243 244 245
4 246 247 248 249
4 250 251 252 253
4 254 255 256 251
4 247 250 253 248
4 257 254 251 250
4 243 246 249 244
4 258 259 260 261
4 261 260 262 263
4 260 264 265 262
4 264 266 267 265
4 239 268 269 240
4 270 271 268 239
4 271 261 263 268
4 249 248 272 273
4 274 275 276 277
4 278 279 280 281
4 282 283 284 285
4 286 287 288 289
4 290 291 292 293
4 294 295 296 297
4 298 299 300 301
4 302 303 304 305
4 306 307 308 309
4 310 311 312 313
4 314 315 316 317
4 318 319 320 321
4 322 323 324 325
4 326 327 328 329
4 330 331 332 333
4 334 335 336 337
4 338 306 309 339
4 231 340 341 232
4 342 343 344 345
4 346 347 348 349
4 350 351 352 353
4 354 355 356 357
4 351 358 359 352
4 360 361 362 363
4 364 365 366 367
4 368 369 370 371
4 372 373 374 375
4 376 377 378 379
4 380 381 382 383
4 384 385 386 387
