ply
format ascii 1.0
comment Created by Blender 2.79 (sub 0) - www.blender.org, source file: ''
element vertex 98
property float x
property float y
property float z
property float nx
property float ny
property float nz
element face 31
property list uchar uint vertex_indices
end_header
3.000000 -4.000000 0.000000 0.000000 -0.000000 1.000000
-0.999999 -3.999999 0.000000 0.000000 -0.000000 1.000000
-1.000000 -8.000000 0.000000 0.000000 -0.000000 1.000000
3.000000 -8.000000 0.000000 0.000000 -0.000000 1.000000
-0.971074 -7.982644 1.007232 0.999588 -0.000000 -0.028707
-1.000000 -8.000000 0.000000 0.999588 -0.000000 -0.028707
-0.999999 -3.999999 0.000000 0.999588 -0.000000 -0.028707
-0.999999 -3.999999 0.000000 0.999897 0.014378 0.000000
-0.999999 -3.999999 1.000000 0.999897 0.014378 0.000000
-0.971073 -6.011570 1.007232 0.999897 0.014378 0.000000
-0.971073 -6.011570 1.007232 0.999588 -0.000000 -0.028707
3.000000 -4.000000 1.000000 -1.000000 0.000000 0.000000
3.000000 -4.000000 0.000000 -1.000000 0.000000 0.000000
3.000000 -8.000000 0.000000 -1.000000 0.000000 0.000000
3.000000 -8.000000 0.000000 -0.999588 -0.000000 -0.028707
2.971074 -7.982644 1.007232 -0.999588 -0.000000 -0.028707
2.971074 -6.011570 1.007232 -0.999588 -0.000000 -0.028707
3.000000 -8.000000 0.000000 -0.998296 0.014152 -0.056608
2.971074 -6.011570 1.007232 -0.998296 0.014152 -0.056608
3.000000 -4.000000 1.000000 -0.998296 0.014152 -0.056608
2.485706 -7.520000 1.500000 0.149650 0.812290 -0.563729
0.471823 -7.249187 1.355607 0.149650 0.812290 -0.563729
1.786117 -6.923639 2.173594 0.149650 0.812290 -0.563729
3.000000 -8.000000 0.000000 0.000000 0.999852 -0.017229
-1.000000 -8.000000 0.000000 0.000000 0.999852 -0.017229
-0.971074 -7.982644 1.007232 0.000000 0.999852 -0.017229
2.971074 -7.982644 1.007232 0.000000 0.999852 -0.017229
-0.999999 -3.999999 1.000000 -0.000000 -1.000000 0.000000
-0.999999 -3.999999 0.000000 -0.000000 -1.000000 0.000000
3.000000 -4.000000 0.000000 -0.000000 -1.000000 0.000000
3.000000 -4.000000 1.000000 -0.000000 -1.000000 -0.000000
1.000000 -4.000000 1.000000 -0.000000 -1.000000 -0.000000
0.471823 -6.868085 1.355607 0.460709 -0.441074 -0.770196
1.285706 -6.270107 1.500000 0.460709 -0.441074 -0.770196
1.786117 -6.923639 2.173594 0.460709 -0.441074 -0.770196
0.471823 -7.249187 1.355607 0.528397 -0.000000 -0.848997
0.471823 -6.868085 1.355607 0.528397 -0.000000 -0.848997
1.786117 -6.923639 2.173594 0.528397 -0.000000 -0.848997
1.285706 -6.270107 1.500000 -0.030291 -0.728537 -0.684336
2.485706 -6.320000 1.500000 -0.030291 -0.728537 -0.684336
1.786117 -6.923639 2.173594 -0.030291 -0.728537 -0.684336
-0.999999 -3.999999 1.000000 -0.000000 -0.663399 -0.748266
1.000000 -4.000000 1.000000 -0.000000 -0.663399 -0.748266
1.000000 -4.730944 1.648041 -0.000000 -0.663399 -0.748266
2.485706 -6.320000 1.500000 -0.693596 0.000000 -0.720364
2.485706 -7.520000 1.500000 -0.693596 0.000000 -0.720364
1.786117 -6.923639 2.173594 -0.693596 0.000000 -0.720364
1.000000 -4.000000 1.000000 0.000000 0.000000 0.000000
3.000000 -4.000000 1.000000 0.000000 0.000000 0.000000
3.000000 -4.000000 1.000000 0.000000 0.000000 0.000000
1.000000 -4.000000 1.000000 0.000000 0.000000 0.000000
1.000000 -5.698208 1.068794 -0.112285 0.817309 -0.565153
-0.971073 -6.011570 1.007232 -0.112285 0.817309 -0.565153
1.000000 -5.133235 1.885842 -0.112285 0.817309 -0.565153
2.971074 -6.011570 1.007232 -0.712437 0.000000 -0.701736
2.971074 -7.982644 1.007232 -0.712437 0.000000 -0.701736
2.485706 -7.520000 1.500000 -0.712437 0.000000 -0.701736
2.485706 -6.320000 1.500000 -0.712437 0.000000 -0.701736
1.000000 -5.698208 1.068794 -0.094918 -0.710408 -0.697361
2.971074 -6.011570 1.007232 -0.094918 -0.710408 -0.697361
2.485706 -6.320000 1.500000 -0.094918 -0.710408 -0.697361
1.285706 -6.270107 1.500000 -0.094918 -0.710408 -0.697361
-0.971074 -7.982644 1.007232 0.234698 -0.000000 -0.972068
-0.971073 -6.011570 1.007232 0.234698 -0.000000 -0.972068
0.471823 -6.868085 1.355607 0.234698 -0.000000 -0.972068
0.471823 -7.249187 1.355607 0.234698 -0.000000 -0.972068
-0.971073 -6.011570 1.007232 0.169468 -0.306175 -0.936770
1.000000 -5.698208 1.068794 0.169468 -0.306175 -0.936770
1.285706 -6.270107 1.500000 0.169468 -0.306175 -0.936770
0.471823 -6.868085 1.355607 0.169468 -0.306175 -0.936770
2.971074 -7.982644 1.007232 0.045230 0.550170 -0.833827
-0.971074 -7.982644 1.007232 0.045230 0.550170 -0.833827
0.471823 -7.249187 1.355607 0.045230 0.550170 -0.833827
2.485706 -7.520000 1.500000 0.045230 0.550170 -0.833827
2.971074 -6.011570 1.007232 0.000000 0.000000 0.000000
1.000000 -5.698208 1.068794 0.000000 0.000000 0.000000
1.000000 -5.698208 1.068794 0.000000 0.000000 0.000000
2.971074 -6.011570 1.007232 0.000000 0.000000 0.000000
3.000000 -4.000000 1.000000 -0.487014 -0.037042 -0.872608
2.971074 -6.011570 1.007232 -0.487014 -0.037042 -0.872608
1.274414 -5.040143 2.007225 -0.487014 -0.037042 -0.872608
1.108490 -4.909837 1.999994 -0.487014 -0.037042 -0.872608
1.274414 -5.040143 2.007225 0.771903 -0.051065 -0.633686
1.000000 -5.133235 1.885842 0.771903 -0.051065 -0.633686
1.000000 -4.730944 1.648041 0.771903 -0.051065 -0.633686
1.108490 -4.909837 1.999994 0.771903 -0.051065 -0.633686
-0.999999 -3.999999 1.000000 0.360291 -0.089935 -0.928494
1.000000 -4.730944 1.648041 0.360291 -0.089935 -0.928494
1.000000 -5.133235 1.885842 0.360291 -0.089935 -0.928494
-0.971073 -6.011570 1.007232 0.360291 -0.089935 -0.928494
1.000000 -4.000000 1.000000 0.050243 -0.736010 -0.675104
3.000000 -4.000000 1.000000 0.050243 -0.736010 -0.675104
1.108490 -4.909837 1.999994 0.050243 -0.736010 -0.675104
1.000000 -4.730944 1.648041 0.050243 -0.736010 -0.675104
2.971074 -6.011570 1.007232 0.094380 0.801917 -0.589934
1.000000 -5.698208 1.068794 0.094380 0.801917 -0.589934
1.000000 -5.133235 1.885842 0.094380 0.801917 -0.589934
1.274414 -5.040143 2.007225 0.094380 0.801917 -0.589934
4 0 1 2 3
3 4 5 6
3 7 8 9
3 6 10 4
3 11 12 13
3 14 15 16
3 17 18 19
3 20 21 22
4 23 24 25 26
3 27 28 29
3 29 30 31
3 29 31 27
3 32 33 34
3 35 36 37
3 38 39 40
3 41 42 43
3 44 45 46
4 47 48 49 50
3 51 52 53
4 54 55 56 57
4 58 59 60 61
4 62 63 64 65
4 66 67 68 69
4 70 71 72 73
4 74 75 76 77
4 78 79 80 81
4 48 74 77 49
4 82 83 84 85
4 86 87 88 89
4 90 91 92 93
4 94 95 96 97
